<?xml version="1.0" encoding="UTF-8" standalone="no"?>
<!-- Created with Inkscape (http://www.inkscape.org/) -->

<svg
   xmlns:dc="http://purl.org/dc/elements/1.1/"
   xmlns:cc="http://creativecommons.org/ns#"
   xmlns:rdf="http://www.w3.org/1999/02/22-rdf-syntax-ns#"
   xmlns:svg="http://www.w3.org/2000/svg"
   xmlns="http://www.w3.org/2000/svg"
   xmlns:sodipodi="http://sodipodi.sourceforge.net/DTD/sodipodi-0.dtd"
   xmlns:inkscape="http://www.inkscape.org/namespaces/inkscape"
   width="400"
   height="200"
   id="svg4026"
   version="1.1"
   inkscape:version="0.48.4 r9939"
   sodipodi:docname="logo_shadow.svg">
  <defs
     id="defs4028">
    <filter
       inkscape:collect="always"
       id="filter4736">
      <feGaussianBlur
         inkscape:collect="always"
         stdDeviation="2.6947994"
         id="feGaussianBlur4738" />
    </filter>
  </defs>
  <sodipodi:namedview
     id="base"
     pagecolor="#ffffff"
     bordercolor="#666666"
     borderopacity="1.0"
     inkscape:pageopacity="0.0"
     inkscape:pageshadow="2"
     inkscape:zoom="2.655"
     inkscape:cx="216.91531"
     inkscape:cy="65.477282"
     inkscape:document-units="px"
     inkscape:current-layer="layer1"
     showgrid="false"
     inkscape:window-width="1920"
     inkscape:window-height="1056"
     inkscape:window-x="516"
     inkscape:window-y="24"
     inkscape:window-maximized="1" />
  <metadata
     id="metadata4031">
    <rdf:RDF>
      <cc:Work
         rdf:about="">
        <dc:format>image/svg+xml</dc:format>
        <dc:type
           rdf:resource="http://purl.org/dc/dcmitype/StillImage" />
        <dc:title></dc:title>
      </cc:Work>
    </rdf:RDF>
  </metadata>
  <g
     inkscape:label="Layer 1"
     inkscape:groupmode="layer"
     id="layer1"
     transform="translate(0,-852.36218)">
    <path
       sodipodi:type="arc"
       style="fill:#f44800;fill-opacity:1;stroke:none"
       id="path3980"
       sodipodi:cx="8.2665844"
       sodipodi:cy="8.0487623"
       sodipodi:rx="7.2304454"
       sodipodi:ry="7.2304454"
       d="M 15.49703,8.0487623 A 7.2304454,7.2304454 0 1 1 1.036139,8.0487623 7.2304454,7.2304454 0 1 1 15.49703,8.0487623 z"
       transform="matrix(6.9152031,0,0,6.9152031,-6.8788582,846.60542)" />
    <g
       id="g4719"
       transform="translate(4,4)"
       style="fill:#000000;filter:url(#filter4736)">
      <path
         d="M 6.2213688,3.0360813 10.589533,3.0360813 C 11.660489,3.0360915 12.496751,3.282185 13.098322,3.7743626 13.704432,4.2620018 14.007492,4.9410375 14.007502,5.8114719 14.007492,6.344682 13.907232,6.8528195 13.706721,7.335886 13.50619,7.8144071 13.219081,8.2336775 12.845393,8.5936985 12.439785,8.9810726 11.956713,9.2636244 11.396174,9.4413548 10.83562,9.6145355 10.131519,9.7011239 9.2838688,9.7011204 L 7.5475407,9.7011204 6.5959402,14.58217 3.9641043,14.58217 4.7294254,10.690622 5.2267399,8.1391087 5.7240543,5.587595 2.1208663,3.0360813 M 8.4909,4.9433079 7.9303532,7.7938938 9.3864079,7.7938938 C 10.006194,7.7938993 10.480152,7.6480661 10.808283,7.3563938 11.136401,7.0647333 11.300463,6.6409056 11.300471,6.0849094 11.300463,5.7157763 11.181974,5.4332245 10.945002,5.2372532 10.712573,5.0412978 10.375334,4.9433162 9.9332829,4.9433079 L 8.4909,4.9433079"
         id="path4700"
         inkscape:connector-curvature="0"
         sodipodi:nodetypes="cscccccscccccccccsscccc"
         style="font-size:14px;font-style:italic;font-variant:normal;font-weight:bold;font-stretch:normal;text-align:start;text-anchor:start;fill:#000000;fill-opacity:1;stroke:none;font-family:Sans;-inkscape-font-specification:Sans Bold Italic"
         transform="matrix(6.28833,0,0,6.28833,-0.56360677,852.21756)" />
      <path
         inkscape:connector-curvature="0"
         id="path4706"
         style="font-size:80px;font-style:normal;font-variant:normal;font-weight:bold;font-stretch:normal;text-align:start;text-anchor:start;fill:#000000;fill-opacity:1;stroke:none;font-family:Mallige;-inkscape-font-specification:Mallige Bold"
         d="M 36.090512,987.67371 25.504575,989.78308 C 23.889974,990.09562 22.809246,990.25187 22.262387,990.25183 20.751956,990.25187 19.996749,988.97583 19.996762,986.42371 19.996749,984.67896 20.595706,982.41333 21.793637,979.62683 22.965496,976.94459 24.176432,974.8873 25.42645,973.45496 28.056636,970.5123 32.705069,968.12949 39.371762,966.30652 44.996724,964.77012 50.296198,964.00189 55.2702,964.00183 59.280564,964.00189 62.027957,964.88731 63.512387,966.65808 65.335245,968.79356 66.246702,973.02532 66.246762,979.35339 66.246702,982.7649 65.231078,985.60344 63.199887,987.86902 59.944625,991.59301 52.965466,996.30655 42.262387,1002.0096 31.585279,1007.7128 23.603516,1012.6477 18.317075,1016.8143 L 18.473325,1016.9706 56.481137,1010.33 C 54.684214,1015.4081 53.290986,1018.7024 52.30145,1020.2128 50.270156,1023.2857 47.340471,1025.1867 43.512387,1025.9159 34.501943,1027.6346 27.210283,1028.494 21.637387,1028.494 17.861334,1028.494 15.452482,1028.0904 14.410825,1027.2831 13.03061,1026.2154 11.936861,1024.5487 11.129575,1022.2831 10.426446,1020.33 10.074884,1018.3768 10.074887,1016.4237 10.074884,1012.6477 15.022795,1007.5045 24.918637,1000.994 28.225907,998.80655 35.035796,994.84822 45.348325,989.11902 54.540985,984.04094 59.137335,979.80917 59.137387,976.42371 59.137335,974.70501 57.874315,973.84563 55.348325,973.84558 51.884738,973.84563 47.392555,974.9524 41.871762,977.16589 39.814437,977.99928 35.543608,979.96542 29.059262,983.06433 L 29.059262,983.22058 34.80145,983.92371 C 37.249336,984.23625 38.473293,984.90031 38.473325,985.91589 38.473293,986.98364 37.679023,987.56958 36.090512,987.67371"
         transform="translate(131.82674,-7.53296)" />
      <path
         inkscape:connector-curvature="0"
         id="path4708"
         style="font-size:80px;font-style:normal;font-variant:normal;font-weight:bold;font-stretch:normal;text-align:start;text-anchor:start;fill:#000000;fill-opacity:1;stroke:none;font-family:Mallige;-inkscape-font-specification:Mallige Bold"
         d="M 110.92065,988.81652 C 114.14976,989.8322 115.76435,993.21761 115.7644,998.97277 115.76435,1005.353 114.01956,1011.9806 110.53003,1018.8556 106.88415,1025.9389 102.11853,1031.8113 96.233148,1036.4728 89.722703,1041.603 82.743543,1044.4415 75.295653,1044.9884 71.076888,1045.2749 67.587309,1043.6342 64.826903,1040.0665 62.326897,1036.8113 61.076898,1032.9572 61.076903,1028.504 61.076898,1023.3478 62.53523,1017.7749 65.451903,1011.7853 68.003975,1006.577 71.298242,1001.7332 75.334715,997.25402 79.371151,992.7749 84.605521,988.76449 91.03784,985.22277 97.079468,981.91554 101.77998,980.26189 105.1394,980.26183 107.01435,980.26189 108.9805,981.13429 111.03784,982.87902 112.96487,984.5197 113.92841,985.91293 113.92847,987.05871 113.92841,987.50147 113.51174,987.85303 112.67847,988.11339 111.63675,988.47803 111.05081,988.71241 110.92065,988.81652 M 86.50659,1030.6525 96.115968,1021.8634 C 98.902378,1018.7645 101.53259,1015.1577 104.00659,1011.0431 107.1055,1005.8869 108.65498,1001.8634 108.65503,998.97277 108.65498,997.67073 108.38154,996.45979 107.83472,995.33996 107.15758,993.93376 106.20706,993.23063 104.98315,993.23058 103.99352,993.23063 102.78259,993.82959 101.35034,995.02746 99.918008,996.22542 99.097698,996.82438 98.889398,996.82433 98.264358,996.82438 97.951858,996.23844 97.951898,995.06652 89.696661,999.70198 83.251355,1005.314 78.615965,1011.9025 74.579489,1017.6837 72.405012,1023.3478 72.092528,1028.8946 72.014387,1030.4572 72.170637,1031.9546 72.561278,1033.3868 73.082095,1035.366 73.941469,1036.3556 75.139403,1036.3556 76.467508,1036.3556 78.446673,1035.6525 81.076903,1034.2462 83.446668,1032.9962 85.256562,1031.7983 86.50659,1030.6525"
         transform="translate(131.82674,-7.53296)" />
      <path
         inkscape:connector-curvature="0"
         id="path4710"
         style="font-size:80px;font-style:normal;font-variant:normal;font-weight:bold;font-stretch:normal;text-align:start;text-anchor:start;fill:#000000;fill-opacity:1;stroke:none;font-family:Mallige;-inkscape-font-specification:Mallige Bold"
         d="M 155.93426,975.52527 146.71551,979.04089 C 145.04882,979.69198 144.1634,980.0175 144.05926,980.01746 143.43424,980.0175 143.17382,979.2623 143.27801,977.75183 143.35611,976.50188 143.83788,975.46022 144.72332,974.62683 145.13996,974.23626 146.15559,973.5722 147.7702,972.63464 157.43162,967.03575 163.08265,964.23627 164.72332,964.23621 165.84307,964.23627 166.91077,965.17377 167.92645,967.04871 168.75973,968.66335 169.1764,969.96543 169.17645,970.95496 169.1764,972.36126 168.5514,974.23626 167.30145,976.57996 166.25973,978.50709 161.79359,986.17635 153.90301,999.58777 146.27277,1012.5826 142.45767,1021.2805 142.4577,1025.6815 142.45767,1026.0461 142.50976,1026.606 142.61395,1027.3612 142.74413,1028.1164 142.80924,1028.6763 142.80926,1029.0409 142.80924,1029.9523 142.35351,1030.4081 141.44207,1030.4081 140.99934,1030.4081 140.30924,1030.1346 139.37176,1029.5878 137.57487,1028.6763 135.79101,1027.7518 134.0202,1026.8143 132.30143,1025.5904 131.44206,1023.9107 131.44207,1021.7753 131.44206,1019.4836 132.26237,1016.0722 133.90301,1011.5409 135.38737,1007.3742 136.85872,1004.093 138.31707,1001.6971 143.29101,993.44197 149.24152,984.7701 156.16864,975.68152 L 155.93426,975.52527"
         transform="translate(131.82674,-7.53296)" />
      <path
         inkscape:connector-curvature="0"
         id="path4712"
         style="font-size:80px;font-style:normal;font-variant:normal;font-weight:bold;font-stretch:normal;text-align:start;text-anchor:start;fill:#000000;fill-opacity:1;stroke:none;font-family:Mallige;-inkscape-font-specification:Mallige Bold"
         d="M 203.7077,1000.5643 227.1452,972.24402 226.91082,972.08777 C 221.20765,974.61386 216.96286,976.69719 214.17645,978.33777 205.29621,983.54615 198.36913,988.36385 193.3952,992.79089 189.95768,995.86384 187.79623,998.4029 186.91082,1000.4081 186.91081,1000.9029 188.10873,1001.2284 190.50457,1001.3846 193.55143,1001.567 197.95247,1001.2935 203.7077,1000.5643 M 223.16082,1010.4081 209.48895,1012.0878 C 208.36912,1015.7597 207.80923,1018.2076 207.80926,1019.4315 207.80923,1020.6555 208.44725,1022.231 209.72332,1024.1581 207.71808,1025.2258 205.71287,1026.2805 203.7077,1027.3221 200.6608,1028.9107 198.77278,1029.705 198.04364,1029.705 196.48111,1029.705 195.69986,1028.0774 195.69989,1024.8221 195.69986,1023.3117 195.94726,1021.3846 196.44207,1019.0409 197.14517,1015.5774 197.5358,1013.5201 197.61395,1012.869 187.90039,1013.3117 183.53842,1013.5331 184.52801,1013.5331 181.0905,1013.5331 179.05926,1012.9472 178.43426,1011.7753 176.45509,1008.0513 175.46551,1005.1737 175.46551,1003.1425 175.46551,1000.8769 176.91082,997.89509 179.80145,994.19714 181.9629,991.43676 184.33269,988.94979 186.91082,986.73621 192.82226,981.63208 200.6608,976.56699 210.42645,971.54089 219.72328,966.77533 225.98629,964.39252 229.21551,964.39246 231.74149,964.39252 233.00451,965.30398 233.00457,967.12683 233.00451,967.90814 232.30139,968.92376 230.8952,970.17371 232.32743,970.8248 233.04358,971.99668 233.04364,973.68933 233.04358,975.79876 232.14514,977.96021 230.34832,980.17371 225.89515,985.66854 221.28578,992.20499 216.5202,999.78308 217.32745,999.78311 218.5514,999.70498 220.19207,999.54871 221.83265,999.36644 223.05661,999.2753 223.86395,999.27527 226.25973,999.2753 227.45764,1000.1086 227.4577,1001.7753 227.45764,1002.6347 226.83264,1004.1581 225.5827,1006.3456 224.77536,1007.6998 223.96806,1009.0539 223.16082,1010.4081"
         transform="translate(131.82674,-7.53296)" />
      <text
         id="text4702"
         y="943.13428"
         x="42.937847"
         style="font-size:14px;font-style:italic;font-variant:normal;font-weight:bold;font-stretch:normal;text-align:start;text-anchor:start;fill:#000000;fill-opacity:1;stroke:none;font-family:Sans;-inkscape-font-specification:Sans Bold Italic"
         xml:space="preserve"><tspan
           style="font-size:80px;fill:#000000"
           y="943.13428"
           x="42.937847"
           id="tspan4704"
           sodipodi:role="line">  LIDAM</tspan></text>
    </g>
    <path
       style="font-size:14px;font-style:italic;font-variant:normal;font-weight:bold;font-stretch:normal;text-align:start;text-anchor:start;fill:#0197fd;fill-opacity:1;stroke:none;font-family:Sans;-inkscape-font-specification:Sans Bold Italic"
       sodipodi:nodetypes="cscccccscccccccccsscccc"
       inkscape:connector-curvature="0"
       id="path3987"
       d="M 38.558413,871.30944 66.026871,871.30944 C 72.761396,871.30951 78.020087,872.85702 81.802964,875.952 85.614384,879.01843 87.520125,883.28843 87.520188,888.76201 87.520125,892.11501 86.889657,895.31035 85.628778,898.34803 84.367773,901.35713 82.562337,903.99364 80.212463,906.25757 77.661866,908.69351 74.62415,910.47029 71.099296,911.58791 67.574348,912.67693 63.146728,913.22143 57.816424,913.22141 L 46.89782,913.22141 40.913842,943.91506 24.363989,943.91506 29.176581,919.44372 32.303859,903.39896 35.431136,887.3542 12.7731,871.30944 M 52.829974,883.30271 49.305071,901.22814 58.461224,901.22814 C 62.358643,901.22817 65.339047,900.31112 67.402443,898.47699 69.465758,896.64293 70.497434,893.97777 70.497484,890.48148 70.497434,888.16025 69.752336,886.38347 68.262178,885.15114 66.800587,883.9189 64.679917,883.30276 61.900154,883.30271 L 52.829974,883.30271" />
    <text
       xml:space="preserve"
       style="font-size:14px;font-style:italic;font-variant:normal;font-weight:bold;font-stretch:normal;text-align:start;text-anchor:start;fill:#000000;fill-opacity:1;stroke:none;font-family:Sans;-inkscape-font-specification:Sans Bold Italic"
       x="42.937847"
       y="943.13428"
       id="text4133"><tspan
         sodipodi:role="line"
         id="tspan4135"
         x="42.937847"
         y="943.13428"
         style="font-size:80px;fill:#000000">  LIDAM</tspan></text>
    <g
       style="font-size:80px;font-style:italic;font-variant:normal;font-weight:bold;font-stretch:normal;text-align:start;text-anchor:start;fill:#000000;fill-opacity:1;stroke:none;font-family:Khmer OS System;-inkscape-font-specification:Khmer OS System Bold Italic"
       id="text4137"
       transform="translate(131.82674,-7.5329567)">
      <path
         d="M 36.090512,987.67371 25.504575,989.78308 C 23.889974,990.09562 22.809246,990.25187 22.262387,990.25183 20.751956,990.25187 19.996749,988.97583 19.996762,986.42371 19.996749,984.67896 20.595706,982.41333 21.793637,979.62683 22.965496,976.94459 24.176432,974.8873 25.42645,973.45496 28.056636,970.5123 32.705069,968.12949 39.371762,966.30652 44.996724,964.77012 50.296198,964.00189 55.2702,964.00183 59.280564,964.00189 62.027957,964.88731 63.512387,966.65808 65.335245,968.79356 66.246702,973.02532 66.246762,979.35339 66.246702,982.7649 65.231078,985.60344 63.199887,987.86902 59.944625,991.59301 52.965466,996.30655 42.262387,1002.0096 31.585279,1007.7128 23.603516,1012.6477 18.317075,1016.8143 L 18.473325,1016.9706 56.481137,1010.33 C 54.684214,1015.4081 53.290986,1018.7024 52.30145,1020.2128 50.270156,1023.2857 47.340471,1025.1867 43.512387,1025.9159 34.501943,1027.6346 27.210283,1028.494 21.637387,1028.494 17.861334,1028.494 15.452482,1028.0904 14.410825,1027.2831 13.03061,1026.2154 11.936861,1024.5487 11.129575,1022.2831 10.426446,1020.33 10.074884,1018.3768 10.074887,1016.4237 10.074884,1012.6477 15.022795,1007.5045 24.918637,1000.994 28.225907,998.80655 35.035796,994.84822 45.348325,989.11902 54.540985,984.04094 59.137335,979.80917 59.137387,976.42371 59.137335,974.70501 57.874315,973.84563 55.348325,973.84558 51.884738,973.84563 47.392555,974.9524 41.871762,977.16589 39.814437,977.99928 35.543608,979.96542 29.059262,983.06433 L 29.059262,983.22058 34.80145,983.92371 C 37.249336,984.23625 38.473293,984.90031 38.473325,985.91589 38.473293,986.98364 37.679023,987.56958 36.090512,987.67371"
         style="font-style:normal;fill:#000000;font-family:Mallige;-inkscape-font-specification:Mallige Bold"
         id="path4142"
         inkscape:connector-curvature="0" />
      <path
         d="M 110.92065,988.81652 C 114.14976,989.8322 115.76435,993.21761 115.7644,998.97277 115.76435,1005.353 114.01956,1011.9806 110.53003,1018.8556 106.88415,1025.9389 102.11853,1031.8113 96.233148,1036.4728 89.722703,1041.603 82.743543,1044.4415 75.295653,1044.9884 71.076888,1045.2749 67.587309,1043.6342 64.826903,1040.0665 62.326897,1036.8113 61.076898,1032.9572 61.076903,1028.504 61.076898,1023.3478 62.53523,1017.7749 65.451903,1011.7853 68.003975,1006.577 71.298242,1001.7332 75.334715,997.25402 79.371151,992.7749 84.605521,988.76449 91.03784,985.22277 97.079468,981.91554 101.77998,980.26189 105.1394,980.26183 107.01435,980.26189 108.9805,981.13429 111.03784,982.87902 112.96487,984.5197 113.92841,985.91293 113.92847,987.05871 113.92841,987.50147 113.51174,987.85303 112.67847,988.11339 111.63675,988.47803 111.05081,988.71241 110.92065,988.81652 M 86.50659,1030.6525 96.115968,1021.8634 C 98.902378,1018.7645 101.53259,1015.1577 104.00659,1011.0431 107.1055,1005.8869 108.65498,1001.8634 108.65503,998.97277 108.65498,997.67073 108.38154,996.45979 107.83472,995.33996 107.15758,993.93376 106.20706,993.23063 104.98315,993.23058 103.99352,993.23063 102.78259,993.82959 101.35034,995.02746 99.918008,996.22542 99.097698,996.82438 98.889398,996.82433 98.264358,996.82438 97.951858,996.23844 97.951898,995.06652 89.696661,999.70198 83.251355,1005.314 78.615965,1011.9025 74.579489,1017.6837 72.405012,1023.3478 72.092528,1028.8946 72.014387,1030.4572 72.170637,1031.9546 72.561278,1033.3868 73.082095,1035.366 73.941469,1036.3556 75.139403,1036.3556 76.467508,1036.3556 78.446673,1035.6525 81.076903,1034.2462 83.446668,1032.9962 85.256562,1031.7983 86.50659,1030.6525"
         style="font-style:normal;fill:#000000;font-family:Mallige;-inkscape-font-specification:Mallige Bold"
         id="path4144"
         inkscape:connector-curvature="0" />
      <path
         d="M 155.93426,975.52527 146.71551,979.04089 C 145.04882,979.69198 144.1634,980.0175 144.05926,980.01746 143.43424,980.0175 143.17382,979.2623 143.27801,977.75183 143.35611,976.50188 143.83788,975.46022 144.72332,974.62683 145.13996,974.23626 146.15559,973.5722 147.7702,972.63464 157.43162,967.03575 163.08265,964.23627 164.72332,964.23621 165.84307,964.23627 166.91077,965.17377 167.92645,967.04871 168.75973,968.66335 169.1764,969.96543 169.17645,970.95496 169.1764,972.36126 168.5514,974.23626 167.30145,976.57996 166.25973,978.50709 161.79359,986.17635 153.90301,999.58777 146.27277,1012.5826 142.45767,1021.2805 142.4577,1025.6815 142.45767,1026.0461 142.50976,1026.606 142.61395,1027.3612 142.74413,1028.1164 142.80924,1028.6763 142.80926,1029.0409 142.80924,1029.9523 142.35351,1030.4081 141.44207,1030.4081 140.99934,1030.4081 140.30924,1030.1346 139.37176,1029.5878 137.57487,1028.6763 135.79101,1027.7518 134.0202,1026.8143 132.30143,1025.5904 131.44206,1023.9107 131.44207,1021.7753 131.44206,1019.4836 132.26237,1016.0722 133.90301,1011.5409 135.38737,1007.3742 136.85872,1004.093 138.31707,1001.6971 143.29101,993.44197 149.24152,984.7701 156.16864,975.68152 L 155.93426,975.52527"
         style="font-style:normal;fill:#f44800;font-family:Mallige;-inkscape-font-specification:Mallige Bold"
         id="path4146"
         inkscape:connector-curvature="0" />
      <path
         d="M 203.7077,1000.5643 227.1452,972.24402 226.91082,972.08777 C 221.20765,974.61386 216.96286,976.69719 214.17645,978.33777 205.29621,983.54615 198.36913,988.36385 193.3952,992.79089 189.95768,995.86384 187.79623,998.4029 186.91082,1000.4081 186.91081,1000.9029 188.10873,1001.2284 190.50457,1001.3846 193.55143,1001.567 197.95247,1001.2935 203.7077,1000.5643 M 223.16082,1010.4081 209.48895,1012.0878 C 208.36912,1015.7597 207.80923,1018.2076 207.80926,1019.4315 207.80923,1020.6555 208.44725,1022.231 209.72332,1024.1581 207.71808,1025.2258 205.71287,1026.2805 203.7077,1027.3221 200.6608,1028.9107 198.77278,1029.705 198.04364,1029.705 196.48111,1029.705 195.69986,1028.0774 195.69989,1024.8221 195.69986,1023.3117 195.94726,1021.3846 196.44207,1019.0409 197.14517,1015.5774 197.5358,1013.5201 197.61395,1012.869 187.90039,1013.3117 183.53842,1013.5331 184.52801,1013.5331 181.0905,1013.5331 179.05926,1012.9472 178.43426,1011.7753 176.45509,1008.0513 175.46551,1005.1737 175.46551,1003.1425 175.46551,1000.8769 176.91082,997.89509 179.80145,994.19714 181.9629,991.43676 184.33269,988.94979 186.91082,986.73621 192.82226,981.63208 200.6608,976.56699 210.42645,971.54089 219.72328,966.77533 225.98629,964.39252 229.21551,964.39246 231.74149,964.39252 233.00451,965.30398 233.00457,967.12683 233.00451,967.90814 232.30139,968.92376 230.8952,970.17371 232.32743,970.8248 233.04358,971.99668 233.04364,973.68933 233.04358,975.79876 232.14514,977.96021 230.34832,980.17371 225.89515,985.66854 221.28578,992.20499 216.5202,999.78308 217.32745,999.78311 218.5514,999.70498 220.19207,999.54871 221.83265,999.36644 223.05661,999.2753 223.86395,999.27527 226.25973,999.2753 227.45764,1000.1086 227.4577,1001.7753 227.45764,1002.6347 226.83264,1004.1581 225.5827,1006.3456 224.77536,1007.6998 223.96806,1009.0539 223.16082,1010.4081"
         style="font-style:normal;fill:#f44800;font-family:Mallige;-inkscape-font-specification:Mallige Bold"
         id="path4148"
         inkscape:connector-curvature="0" />
    </g>
  </g>
</svg>
